<?xml version="1.0" encoding="UTF-8"?>
<!-- Created with Inkscape (http://www.inkscape.org/) -->
<svg width="600" height="300" version="1.1" viewBox="0 0 600 300" xmlns="http://www.w3.org/2000/svg">
 <g transform="matrix(.59318 0 0 .59318 14.991 3.1876)" stroke-width="1.6858">
  <g fill="#f00">
   <path d="m472.86 476.72c-3.0337-3.2661-12.404-12.993-20.823-21.616-8.4189-8.6225-27.485-28.273-42.369-43.667-14.884-15.394-32.15-33.245-38.369-39.668l-11.307-11.678h-208.27l-127.31-127.32h118.18l0.6091-84.087 2.4792-6.4054c6.593-17.034 16.685-27.219 33.83-34.142l5.4708-2.2089 202.38-0.5109 93.12-93.078 93.099 93.113 98.343 0.014c108.85 0.0155 104.64-0.2075 116.77 6.1864 8.1969 4.3206 14.474 9.7901 19.167 16.7 9.573 14.097 10.31 18.843 10.352 66.649l0.0331 37.768h118.29l-127.31 127.32h-104.7c-101.33 0-104.74 0.0574-105.95 1.7832-1.9 2.7126-118.73 120.78-119.51 120.78-0.37637 0-3.1664-2.6723-6.2002-5.9384z"/>
   <path d="m603.2 449.89c-0.34838-0.34838-0.63342-2.5158-0.63342-4.8165 0-3.5138 1.2512-6.339 7.8197-17.657 10.307-17.76 13.295-26.659 10.043-29.911-2.9631-2.9631-7.4111-0.26344-7.4111 4.4982 0 1.751-0.57671 1.9627-5.3466 1.9627h-5.3466l0.46328-4.8215c0.2548-2.6518 1.3016-5.9654 2.3262-7.3636 4.1613-5.6783 12.55-7.3833 19.902-4.0449 3.1729 1.4408 4.2415 2.6178 5.5954 6.1629 2.9505 7.7259 1.7198 13.112-6.8298 29.888-4.091 8.0274-7.5806 14.975-7.7548 15.44s3.3532 0.84433 7.8386 0.84433h8.1553v10.452h-14.094c-7.7515 0-14.379-0.28504-14.727-0.63343zm43.153-1.0308c-6.2014-3.1749-6.7317-5.5504-6.73-30.151 2e-3 -23.879 0.46311-26.289 5.7816-30.184 5.9237-4.3383 17.297-2.4679 20.898 3.4368 1.6564 2.7165 1.8166 5.0104 1.8198 26.067 4e-3 25.571-0.30914 27.175-5.9809 30.633-3.8651 2.3567-11.387 2.4508-15.788 0.19759zm11.381-11.434c0.29152-7.9444-0.16925-39.518-0.58656-40.193-0.76906-1.2444-4.5924-1.068-5.9342 0.27368-1.2758 1.2758-1.6574 39.373-0.41301 41.236 1.8225 2.7289 6.8201 1.7802 6.9337-1.3162zm18.943 7.8062c0-4.8905 0.57899-6.2904 7.639-18.47 8.6952-15 10.656-19.941 10.235-25.794-0.27825-3.8729-0.48335-4.1452-3.3295-4.4207-2.8068-0.27173-3.1192-6e-3 -4.1885 3.563l-1.1555 3.8566h-10.366l0.67491-4.5006c1.3251-8.8362 4.5995-12.295 12.485-13.187 6.421-0.72674 11.612 1.1946 14.417 5.3362 1.9864 2.9328 2.2139 4.1994 1.9262 10.727-0.3149 7.1462-0.59528 7.9235-8.1397 22.566l-7.8136 15.165h16.12v10.452h-28.504zm53.208 0.0658v-5.2258h-19.953v-5.3729c0-3.8702 1.7716-11.31 6.3348-26.604l6.3348-21.231h5.5121c3.9963 0 5.3986 0.32661 5.0995 1.1877-1.1627 3.3472-11.88 41.024-11.88 41.764 0 0.4751 1.8171 0.73234 4.0381 0.57165l4.0381-0.29216 0.555-14.727h9.4214v7.215c0 6.4159 0.21046 7.27 1.9003 7.7119 1.573 0.41135 1.9003 1.296 1.9003 5.1368 0 4.0064-0.25942 4.6399-1.9003 4.6399-1.6699 0-1.9003 0.63343-1.9003 5.2258v5.2258h-9.5014z"/>
   <path d="m130.81 450.44c-6.8736-1.6974-10.907-6.9652-10.907-14.246v-3.8945h10.337l0.29489 3.5457c0.37888 4.5556 3.9511 6.2525 7.8224 3.7159 2.1233-1.3912 2.445-2.2651 2.4188-6.5709-0.0365-5.9951-0.93745-7.3057-7.2059-10.482-10.644-5.3936-13.667-9.6834-13.667-19.393 0-11.37 4.8447-16.743 15.086-16.734 9.705 9e-3 15.308 5.0764 15.315 13.851l-0.0798 4.9319-9.5962-0.18407c0.16677-9.1944-4.2172-10.06-8.3237-7.862-1.5922 0.85211-1.9493 1.9731-1.9493 6.1192 0 5.8139 0.0321 5.8516 9.7179 11.405 9.721 5.574 10.71 7.2483 10.71 18.132 0 7.5509-0.30061 9.2902-1.9996 11.569-3.7776 5.0678-11.512 7.6911-17.973 6.0957zm125.22-0.0625c-4.3577-1.0318-7.5613-3.365-9.5054-6.9226-1.4719-2.6936-1.6825-5.8144-1.6825-24.932 0-20.268 0.14027-22.092 1.9339-25.145 1.0636-1.8105 3.3009-4.0903 4.9718-5.0661 3.8836-2.2682 12.07-2.4185 16.172-0.29696 4.031 2.0845 6.8514 7.783 6.8514 13.843v4.7885h-10.451v-3.7467c0-2.7374-0.54129-4.1258-2.0094-5.1541-2.0372-1.4269-4.5434-1.1014-5.8147 0.75528-0.83746 1.223-0.97517 37.748-0.15043 39.897 0.68136 1.7756 5.1826 2.0145 6.8343 0.36275 0.62709-0.62709 1.1402-2.7649 1.1402-4.7507v-3.6105h10.451l-1e-3 4.9882c-3e-3 8.7661-4.2984 14.065-12.35 15.233-1.829 0.26537-4.7043 0.156-6.3896-0.24304zm36.638-0.0221c-4.2985-0.77473-7.8447-3.0298-10.045-6.3879-1.4847-2.2659-1.676-5.1846-1.676-25.571 0-21.911 0.0958-23.141 1.9996-25.695 6.6453-8.915 23.584-8.5284 28.166 0.64293 1.437 2.8766 1.6613 6.2749 1.6613 25.179s-0.22421 22.302-1.6613 25.179c-2.6018 5.2082-10.552 8.0764-18.444 6.654zm7.5454-10.983c2.0649-1.4463 2.1117-1.9087 2.1117-20.881v-19.402l-2.3449-1.5364c-3.0765-2.0158-7.32-0.71884-8.2232 2.5132-0.99731 3.5689-0.94509 34.667 0.0627 37.318 0.79928 2.1023 2.2346 3.0104 5.3058 3.3572 0.53694 0.0606 1.9265-0.55537 3.0879-1.3689zm-136.45 11.146-7.7622-63.355 9.9764 6e-3 3.5889 43 7.0898-43.178h6.812l8.6651 42.38 2.6684-42.38 10.598 1e-5 -7.5848 63.528h-9.9407l-7.4045-39.596-6.881 39.596zm47.346-31.995v-31.83h27.554v10.38l-17.578 0.54638v15.202l15.677 0.55192v10.298l-15.677 0.55192v15.202l17.578 0.54637v10.38h-27.554zm109.27 0v-31.83h8.2189l6.4954 18.765c3.5725 10.321 6.854 19.171 7.2922 19.668 0.4382 0.49645 0.79672-7.9479 0.79672-18.765v-19.668h9.5014v63.659h-8.4131l-2.8062-7.3636c-1.5434-4.05-4.4167-11.853-6.3851-17.34-1.9684-5.487-3.9434-10.383-4.3889-10.879-0.44972-0.50119-0.80994 7.2108-0.80994 17.34v18.243h-9.5014z"/>
  </g>
  <g fill="#fff">
   <path d="m484.36 99.651c1.3833-3.8627 2.6344-7.1571 2.7802-7.3207 0.14584-0.16366 3.7741 1.4667 8.0629 3.623 4.2888 2.1563 8.0232 3.6951 8.2989 3.4195 0.49606-0.49606-0.77511-3.5304-5.0844-12.137l-2.2241-4.4419 8.5311-3.0517c4.6921-1.6784 8.5311-3.3403 8.5311-3.693 0-0.35276-3.848-1.8711-8.5512-3.3742s-8.5512-2.8756-8.5512-3.0502 1.7102-3.7189 3.8005-7.8763c2.0903-4.1574 3.8006-7.9682 3.8006-8.4685s-3.5904 0.77292-7.9786 2.8293c-4.3882 2.0564-8.201 3.7389-8.4728 3.7389-0.27179 0-1.8778-3.8679-3.5688-8.5954-1.6911-4.7275-3.3744-8.2549-3.7408-7.8386s-1.8712 4.2842-3.3441 8.5954c-1.4728 4.3112-3.041 7.8386-3.4847 7.8386-0.44372 0-4.2178-1.715-8.3868-3.8111-4.169-2.0961-7.58-3.3295-7.58-2.7408s1.4965 4.2658 3.3255 8.1714c1.829 3.9056 3.3255 7.3851 3.3255 7.7322 0 0.34709-2.7393 1.5871-6.0873 2.7556-12.859 4.4878-12.587 3.8234-2.9902 7.3052 4.675 1.6961 8.6533 3.5435 8.8406 4.1054s-1.4159 4.5151-3.5628 8.7849c-4.5024 8.9548-4.5633 8.9274 6.9849 3.1417 3.5809-1.794 6.6092-3.1275 6.7294-2.9634 0.12022 0.16418 1.217 3.0777 2.4373 6.4744 1.2203 3.3967 2.6046 7.2448 3.0763 8.5512 1.0599 2.9356 1.5257 2.2295 5.083-7.704z"/>
   <path d="m179.76 305.93v-36.105h36.105v-19.003h-36.105v-47.445c0-31.212 0.34576-48.36 1.0106-50.12 1.9272-5.1006 7.4705-9.67 13.479-11.111l2.6129-0.62651v55.144h19.003v-74.111l-8.7888 7e-3c-21.106 0.0172-32.981 5.1944-40.981 17.867-5.2079 8.2498-5.3383 9.7675-5.3383 62.11v48.284h-91.652l18.931 19.003h72.721v17.102h-27.079c-14.893 0-27.079 0.31264-27.079 0.69475s3.9465 4.6577 8.77 9.5014l8.77 8.8066h36.618v18.053h-18.49l17.978 18.053h19.515zm109.05-59.621-0.2595-95.726-2.5619-5.4663c-1.409-3.0064-4.716-7.7439-7.3487-10.528-8.3236-8.801-17.92-12.013-35.933-12.028l-8.7888-7e-3v74.111h8.9246c7.5071 0 9.0226-0.25539 9.5416-1.6078 0.33934-0.88431 0.55478-13.097 0.47875-27.139-0.076-14.042 0.0368-25.706 0.25069-25.92 0.21391-0.21392 1.955 0.0435 3.869 0.57196 4.5027 1.2432 8.8453 4.9408 11.182 9.5208 1.7712 3.4719 1.8586 5.8725 1.8586 51.055v47.412l-4.824 0.57133c-11.266 1.3343-23.127 10.147-28.075 20.86l-2.7308 5.9121-0.54698 64.134h55.224zm-35.953 75.536c-0.0347-1.1758-0.0127-10.475 0.049-20.665 0.0929-15.358 0.38809-19.086 1.7258-21.792 2.1354-4.3196 7.571-8.5421 11.901-9.2447l3.4899-0.56634v54.406h-8.5512c-8.2158 0-8.5537-0.0838-8.6143-2.1378zm72.273-80.124v-100.31l3.0879 0.66499c6.576 1.4162 10.949 5.0155 13.494 11.108 1.2932 3.0951 1.4706 14.695 1.4706 96.188v92.669h19.003v-92.914c0-100.99 0.10383-98.86-5.2782-108.04-1.3239-2.2591-4.2736-5.828-6.5549-7.9308-8.6142-7.9403-18.539-10.914-34.724-10.403l-9.0263 0.28489-0.24152 109.5-0.24153 109.5h19.011zm92.088 91.374 0.16666-8.9407-3.1337-0.67657c-5.566-1.2017-10.199-4.1901-12.873-8.3028l-2.6125-4.0186-0.60722-41.26 18.535-0.54547 0.1246-18.528-18.528 1.5e-4v-128.34l-18.528 0.54388v190.03l2.131 5.2258c5.6237 13.79 18.39 23.47 31.24 23.687l3.9172 0.0662zm72.285-85.449c0-90.947-0.0672-94.585-1.8436-99.748-2.586-7.5164-6.8031-13.225-13.101-17.735-7.6384-5.4697-13.548-6.9696-27.812-7.0591l-11.877-0.0746-0.49738 73.636h19.025v-55.144l2.6129 0.62651c5.5361 1.3274 9.6116 4.2463 12.465 8.9279 1.9856 3.2572 2.017 4.0566 2.0206 51.406l4e-3 48.097-4.8177 0.63909c-14.218 1.8862-26.164 12.805-30.234 27.635-0.65323 2.3804-1.0449 14.895-1.0482 33.492l-5e-3 29.692h55.108zm-35.918 55.124 0.28806-21.213 2.6139-3.9467c2.6454-3.9943 8.5251-7.7848 12.075-7.7848 1.9054 0 1.9381 0.45714 1.9381 27.079v27.079h-17.204zm83.968 37.685c9.8112-3.3131 17.051-9.7723 21.657-19.322l2.9786-6.1759 0.56898-64.134h-36.199v-47.445c0-31.212 0.34577-48.36 1.0106-50.12 1.9272-5.1006 7.4705-9.67 13.479-11.111l2.6129-0.62651v55.144h19.003v-74.111h-9.8467c-5.4157 0-12.048 0.41747-14.739 0.92771-11.753 2.2289-21.511 9.7821-27.006 20.904l-3.041 6.1546-0.52986 119.28h36.16v19.891c0 21.128-0.39125 23.518-4.5736 27.938-4.5904 4.8517-7.3433 5.7022-19.892 6.1462l-11.639 0.41178v17.823h12.658c9.2968 0 13.901-0.41982 17.34-1.5812zm80.218-7.3324v-8.9135l-4.2511-1.0704c-5.0015-1.2594-10.708-5.9432-12.518-10.274-0.94007-2.2499-1.2837-8.4213-1.2837-23.056v-19.983h18.053v-19.003h-18.039l-0.24422-63.897-0.24422-63.897-18.563-0.152 0.25506 96.04 0.25507 96.04 2.9402 6.1759c5.6952 11.963 17.996 20.618 29.602 20.829l4.0381 0.0736zm36.105-100.86v-109.78l-18.528 0.54388-0.24153 109.5-0.24152 109.5h19.011zm37.055 73.67c0-35.707 0.0214-36.105 1.9381-36.105 2.4832 0 8.532 3.0783 10.537 5.3622 4.4934 5.1194 4.6277 6.2036 4.6277 37.347v29.501h19.097l-0.56898-64.134-2.4676-5.2258c-3.5217-7.458-10.298-14.549-17.201-17.998-3.1976-1.5978-6.6258-2.9052-7.6184-2.9052-0.99252 0-1.5403-0.42756-1.2174-0.95014 0.32297-0.52257 1.208-0.95013 1.9667-0.95013 2.8779 0 10.26-4.2603 15.191-8.767 3.326-3.0398 6.2166-6.9012 8.2356-11.001l3.1108-6.3177v-100.76h-18.053l-0.47506 49.007-0.47507 49.007-2.6761 3.5076c-3.2487 4.258-6.1786 6.266-10.597 7.2625l-3.3392 0.75312-0.24521-54.769-0.2452-54.769-18.528-0.21824v219.22h19.003zm118.79 26.102c4.929-4.9496 8.5427-9.0222 8.0304-9.0503s-4.5656-0.13499-9.0075-0.23753l-8.0762-0.18644-0.27318-8.7888-0.27319-8.7888h36.616l8.8066-8.77c4.8436-4.8235 8.8066-9.0991 8.8066-9.5014s-12.185-0.73137-27.079-0.73137h-27.079v-17.102h72.721l18.931-19.003h-91.574l-0.27699-50.12-0.27698-50.12-2.5478-5.4345c-2.9738-6.3431-9.9621-14.171-15.602-17.476-5.4988-3.2225-15.25-5.0827-26.744-5.1022l-9.7389-0.0165v74.111h19.003v-55.144l2.6129 0.62651c6.4228 1.54 12.004 6.4088 13.558 11.827 0.55175 1.9238 0.93142 22.271 0.93142 49.916v46.668l-4.824 0.57133c-11.266 1.3343-23.127 10.147-28.075 20.86l-2.7308 5.9121-0.2728 32.305-0.2728 32.305 55.745-0.52921zm-44.965-9.5973c-1.0908-1.0908-0.78136-39.836 0.34186-42.809 2.0603-5.4529 9.046-10.751 14.176-10.751 1.9207 0 1.9424 0.34289 1.6933 26.841l-0.25233 26.841-7.645 0.27283c-4.2047 0.15005-7.9459-0.0281-8.3137-0.39589z"/>
   <path d="m495.37 444.46c17.459-8.0383 25.785-29.214 18.418-46.845-2.2612-5.4119-8.081-12.594-12.675-15.641-2.2368-1.484-3.6809-2.8449-3.2091-3.0244s1.9752-2.5448 3.3408-5.2562c1.5051-2.9884 3.5172-5.4233 5.1094-6.1829 3.2246-1.5384 4.0259-5.7688 1.6003-8.449-3.6975-4.0857-9.7098-0.6256-8.5953 4.9467 0.43773 2.1886-0.0597 4.4144-1.8164 8.1278-1.3306 2.8126-2.1716 5.5145-1.8689 6.0043 0.30269 0.48977-0.96456 0.25751-2.8161-0.51612-6.5966-2.7562-18.042-2.7517-25.239 0.0101-2.1283 0.81671-6.9243-9.2386-6.1305-12.853 1.5289-6.961-7.5705-10.576-10.07-4.0009-1.0531 2.77 1.0067 6.9165 3.4359 6.9165 0.79237 0 2.7497 2.7123 4.4596 6.1798l3.0474 6.1798-2.3437 1.5896c-4.7813 3.2431-9.8231 9.396-12.651 15.439-2.5432 5.4346-2.9081 7.2431-2.8871 14.308 0.0181 6.077 0.55165 9.4328 2.1472 13.504 3.587 9.1525 12.511 17.515 22.776 21.342 5.7969 2.1612 19.441 1.227 25.968-1.778zm-17.744-3.603c-0.34259-0.55433 0.62356-0.95014 2.3193-0.95014 1.5986 0 2.9065 0.42757 2.9065 0.95014 0 0.52258-1.0437 0.95014-2.3193 0.95014-1.2756 0-2.5835-0.42756-2.9065-0.95014zm1.4252-7.126c0-0.78386 0.64134-1.4252 1.4252-1.4252s1.4252 0.64134 1.4252 1.4252-0.64135 1.4252-1.4252 1.4252-1.4252-0.64135-1.4252-1.4252zm-19.605-3.2481c-8.4984-5.1821-11.838-16.967-7.3433-25.911 2.8021-5.5759 9.4937-7.1771 15.271-3.6542 10.214 6.2281 11.855 24.03 2.7269 29.596-3.7233 2.2704-6.8955 2.2611-10.655-0.0313zm31.986 0.60741c-9.1047-4.607-8.9195-20.838 0.33046-28.959 8.0124-7.035 17.633-2.1556 18.467 9.3656 0.65373 9.0377-3.266 16.716-9.9619 19.513-3.8186 1.5955-5.8052 1.6136-8.8351 0.0805z"/>
  </g>
 </g>
</svg>
