<?xml version="1.0" encoding="UTF-8"?>
<!-- Created with Inkscape (http://www.inkscape.org/) -->
<svg width="15mm" height="15mm" version="1.1" viewBox="0 0 15 15" xmlns="http://www.w3.org/2000/svg">
 <g transform="translate(-106.63 -119.86)">
  <path d="m116.46 133.97c2.7401-1.2616 4.0468-4.585 2.8906-7.3521-0.35489-0.84938-1.2683-1.9765-1.9893-2.4549-0.35106-0.2329-0.57771-0.4465-0.50366-0.47467 0.074-0.0282 0.30999-0.39939 0.52432-0.82494 0.23622-0.46902 0.55202-0.85117 0.8019-0.97038 0.50609-0.24145 0.63184-0.90539 0.25115-1.326-0.58031-0.64123-1.5239-0.0982-1.349 0.77637 0.0687 0.3435-9e-3 0.69282-0.28508 1.2756-0.20883 0.44143-0.34082 0.86549-0.29331 0.94235 0.0475 0.0769-0.15139 0.0404-0.44198-0.081-1.0353-0.43258-2.8316-0.43187-3.9612 2e-3 -0.33403 0.12818-1.0867-1.45-0.96215-2.0172 0.23995-1.0925-1.1882-1.6599-1.5805-0.62793-0.16528 0.43473 0.15801 1.0855 0.53926 1.0855 0.12435 0 0.43155 0.42568 0.69991 0.96989l0.47827 0.96989-0.36783 0.24949c-0.7504 0.50898-1.5417 1.4747-1.9855 2.4231-0.39914 0.85294-0.45641 1.1368-0.45312 2.2455 3e-3 0.95377 0.0866 1.4804 0.33699 2.1194 0.56296 1.4364 1.9636 2.7489 3.5746 3.3495 0.90979 0.3392 3.0512 0.19258 4.0756-0.27905zm-2.7848-0.56548c-0.0538-0.087 0.0979-0.14912 0.364-0.14912 0.25089 0 0.45616 0.0671 0.45616 0.14912 0 0.082-0.1638 0.14912-0.36399 0.14912-0.2002 0-0.40548-0.0671-0.45617-0.14912zm0.22368-1.1184c0-0.12303 0.10066-0.22368 0.22368-0.22368 0.12303 0 0.22369 0.10065 0.22369 0.22368 0 0.12302-0.10066 0.22368-0.22369 0.22368-0.12302 0-0.22368-0.10066-0.22368-0.22368zm-3.077-0.50978c-1.3338-0.81331-1.858-2.6628-1.1525-4.0666 0.43978-0.87511 1.49-1.1264 2.3968-0.57351 1.6031 0.97747 1.8606 3.7714 0.42798 4.645-0.58435 0.35633-1.0822 0.35487-1.6723-5e-3zm5.02 0.0953c-1.429-0.72306-1.3999-3.2704 0.0519-4.5451 1.2575-1.1041 2.7675-0.33832 2.8982 1.4699 0.1026 1.4184-0.51257 2.6234-1.5635 3.0625-0.59932 0.25041-0.91111 0.25326-1.3866 0.0126z" fill="#f00" stroke-width=".26458"/>
 </g>
</svg>
