<?xml version="1.0" encoding="UTF-8" standalone="no"?>
<svg id="svg9096" xmlns:rdf="http://www.w3.org/1999/02/22-rdf-syntax-ns#" xmlns="http://www.w3.org/2000/svg" height="451.56mm" width="409.34mm" version="1.1" xmlns:cc="http://creativecommons.org/ns#" xmlns:xlink="http://www.w3.org/1999/xlink" viewBox="0 0 1450.4283 1599.9999" xmlns:dc="http://purl.org/dc/elements/1.1/">
<defs id="defs9098">
<linearGradient id="linearGradient9745" y2="910.53" gradientUnits="userSpaceOnUse" x2="499.39" y1="10.907" x1="-757.83">
<stop id="stop10" stop-color="#F00" offset="0" fill="url(#linearGradient4173)"/>
<stop id="stop12" stop-color="#F00" offset=".1667" fill="url(#linearGradient4173)"/>
<stop id="stop14" stop-color="#FF9800" offset=".1667" fill="url(#linearGradient4173)"/>
<stop id="stop16" stop-color="#FF9800" offset=".3333" fill="url(#linearGradient4173)"/>
<stop id="stop18" stop-color="#FF0" offset=".3333" fill="url(#linearGradient4173)"/>
<stop id="stop20" stop-color="#FF0" offset=".5" fill="url(#linearGradient4173)"/>
<stop id="stop22" stop-color="#009800" offset=".5" fill="url(#linearGradient4173)"/>
<stop id="stop24" stop-color="#009800" offset=".6667" fill="url(#linearGradient4173)"/>
<stop id="stop26" stop-color="#00F" offset=".6667" fill="url(#linearGradient4173)"/>
<stop id="stop28" stop-color="#00F" offset=".8333" fill="url(#linearGradient4173)"/>
<stop id="stop30" stop-color="#980098" offset=".8333" fill="url(#linearGradient4173)"/>
<stop id="stop32" stop-color="#980098" offset="1" fill="url(#linearGradient4173)"/>
</linearGradient>
<filter id="filter9939" style="color-interpolation-filters:sRGB" height="1" width="1" y="0" x="0">
<feGaussianBlur id="feGaussianBlur9941" stdDeviation="100 100" result="blur"/>
<feColorMatrix id="feColorMatrix9943" values="1 0 0 0 0 0 1 0 0 0 0 0 1 0 0 0 0 0 50 0 " result="colormatrix"/>
<feComposite id="feComposite9945" operator="in" in2="SourceGraphic" in="colormatrix"/>
</filter>
</defs>
<g id="layer1" transform="translate(1002.4 281.92)">
<path id="path19449_1_" d="m-489.64 1318.1h781.67c-32.843-154.35-72.15-408.27-55.23-470.51 27.867-105.55 117.92-185.22 151.76-269.86 172.16-430.18-38.201-804.69-513.98-854.38-420.12-43.882-653.8 194.67-686.64 441.13-3.481 26.388 0 52.776 12.442 80.161-57.715 90.119-190.57 223.06-202.01 286.79-6.968 38.337 38.311 51.78 60.206 65.224 20.899 6.971 43.785 1.99 57.715 18.92 9.951 12.448-3.481 33.359-6.47 48.794-0.498 25.392-30.346 37.84-27.363 61.24 2.989 19.916 19.903 27.883 35.328 40.33 16.421 12.944-41.798 37.839-22.892 60.743 19.404 22.404 47.77 48.295 37.813 80.16-14.429 49.291-42.296 100.57-19.405 138.91 22.892 37.84 54.732 60.244 103.99 70.2 60.671 0 121.65 0.931 182.7 1.328 33.999 0.221 64.926 19.568 80.147 49.97 24.315 48.561 34.145 98.874 30.221 150.85z" filter="url(#filter9939)" fill="url(#linearGradient9745)"/>
</g>
</svg>
